<svg width="18" height="18" viewBox="0 0 18 18" fill="none" xmlns="http://www.w3.org/2000/svg">
<path d="M2 13.4988V8.49928C2 4.35754 5.13418 1 9.0004 1C12.8666 1 16.0008 4.35754 16.0008 8.49928V13.4988" stroke="#CFCBD2" stroke-width="2" stroke-linecap="round" stroke-linejoin="round"/>
<path d="M15.0004 11.1658H16.0004C16.0004 10.6135 15.5527 10.1658 15.0004 10.1658V11.1658ZM3 11.1658V10.1658C2.44772 10.1658 2 10.6135 2 11.1658H3ZM14.1113 11.8323C14.1113 11.8689 14.0926 11.9529 14.0172 12.0309C13.9595 12.0907 13.8469 12.1658 13.6669 12.1658V10.1658C12.8389 10.1658 12.1113 10.8791 12.1113 11.8323H14.1113ZM14.1113 14.332V11.8323H12.1113V14.332H14.1113ZM13.6669 13.9985C13.8469 13.9985 13.9595 14.0736 14.0172 14.1334C14.0926 14.2114 14.1113 14.2955 14.1113 14.332H12.1113C12.1113 15.2852 12.8389 15.9985 13.6669 15.9985V13.9985ZM14.4447 13.9985H13.6669V15.9985H14.4447V13.9985ZM14.0004 14.332C14.0004 14.2955 14.019 14.2114 14.0944 14.1334C14.1522 14.0736 14.2647 13.9985 14.4447 13.9985V15.9985C15.2728 15.9985 16.0004 15.2852 16.0004 14.332H14.0004ZM14.0004 11.1658V14.332H16.0004V11.1658H14.0004ZM13.6669 12.1658H15.0004V10.1658H13.6669V12.1658ZM13.6669 8.16577C11.5685 8.16577 10.1113 9.94696 10.1113 11.8323H12.1113C12.1113 10.9042 12.8149 10.1658 13.6669 10.1658V8.16577ZM16.0004 8.16577H13.6669V10.1658H16.0004V8.16577ZM18.0004 10.1658C18.0004 9.0612 17.1049 8.16577 16.0004 8.16577V10.1658H18.0004ZM18.0004 14.332V10.1658H16.0004V14.332H18.0004ZM14.4447 17.9985C16.5431 17.9985 18.0004 16.2174 18.0004 14.332H16.0004C16.0004 15.2602 15.2967 15.9985 14.4447 15.9985V17.9985ZM13.6669 17.9985H14.4447V15.9985H13.6669V17.9985ZM10.1113 14.332C10.1113 16.2174 11.5685 17.9985 13.6669 17.9985V15.9985C12.8149 15.9985 12.1113 15.2602 12.1113 14.332H10.1113ZM10.1113 11.8323V14.332H12.1113V11.8323H10.1113ZM2 8.16577C0.89543 8.16577 0 9.0612 0 10.1658H2V8.16577ZM4.33346 8.16577H2V10.1658H4.33346V8.16577ZM7.88911 11.8323C7.88911 9.94696 6.43183 8.16577 4.33346 8.16577V10.1658C5.18543 10.1658 5.88911 10.9042 5.88911 11.8323H7.88911ZM7.88911 14.332V11.8323H5.88911V14.332H7.88911ZM4.33346 17.9985C6.43183 17.9985 7.88911 16.2174 7.88911 14.332H5.88911C5.88911 15.2602 5.18543 15.9985 4.33346 15.9985V17.9985ZM3.55564 17.9985H4.33346V15.9985H3.55564V17.9985ZM0 14.332C0 16.2174 1.45728 17.9985 3.55564 17.9985V15.9985C2.70367 15.9985 2 15.2602 2 14.332H0ZM0 10.1658V14.332H2V10.1658H0ZM4 14.332V11.1658H2V14.332H4ZM3.55564 13.9985C3.73567 13.9985 3.84822 14.0736 3.90597 14.1334C3.98133 14.2114 4 14.2955 4 14.332H2C2 15.2852 2.72761 15.9985 3.55564 15.9985V13.9985ZM4.33346 13.9985H3.55564V15.9985H4.33346V13.9985ZM3.88911 14.332C3.88911 14.2955 3.90778 14.2114 3.98314 14.1334C4.04089 14.0736 4.15344 13.9985 4.33346 13.9985V15.9985C5.16149 15.9985 5.88911 15.2852 5.88911 14.332H3.88911ZM3.88911 11.8323V14.332H5.88911V11.8323H3.88911ZM4.33346 12.1658C4.15344 12.1658 4.04089 12.0907 3.98314 12.0309C3.90778 11.9529 3.88911 11.8689 3.88911 11.8323H5.88911C5.88911 10.8791 5.16149 10.1658 4.33346 10.1658V12.1658ZM3 12.1658H4.33346V10.1658H3V12.1658Z" fill="#CFCBD2"/>
</svg>
