<svg width="512" height="512" viewBox="0 0 512 512" fill="none" xmlns="http://www.w3.org/2000/svg">
<path d="M256.149 161.365C234.929 125.252 160.51 125.252 143.175 125.252V166.439M256.149 161.365C279.342 130.326 340.93 123.263 368.526 124.059C368.526 163.2 368.526 261.049 368.526 321.038C272.886 321.038 256.149 362.225 256.149 362.225M256.149 161.365V362.225M256.149 362.225C256.149 362.225 239.711 316.86 144.071 321.038L143.175 166.439M170.373 227.323C170.373 227.323 202.352 227.323 223.273 239.262M170.373 268.212C170.373 268.212 202.352 268.212 223.273 280.15M170.373 187.629C170.373 187.629 202.352 187.629 223.273 199.567M285.738 239.262C285.738 239.262 309.349 227.323 339.535 227.323M285.738 280.15C285.738 280.15 309.349 268.212 339.535 268.212M110 367C142.976 367 216.28 367 220.583 367H110ZM110 367L110.598 166.439H143.175M285.738 199.567C285.738 199.567 309.349 187.629 339.535 187.629M369.423 166.439H402L401.402 367C397.098 367 324.691 367 291.715 367C288.428 367 282.749 367 286.336 367" stroke="url(#paint0_linear)" stroke-width="10" stroke-linejoin="round"/>
<circle cx="256" cy="256" r="251" stroke="url(#paint1_angular)" stroke-width="10"/>
<defs>
<linearGradient id="paint0_linear" x1="256" y1="124" x2="256" y2="367" gradientUnits="userSpaceOnUse">
<stop stop-color="#9013FE"/>
<stop offset="1" stop-color="#FF6978"/>
</linearGradient>
<radialGradient id="paint1_angular" cx="0" cy="0" r="1" gradientUnits="userSpaceOnUse" gradientTransform="translate(256 142.5) rotate(90) scale(369.5 143.481)">
<stop offset="0.393626" stop-color="#9013FE"/>
<stop offset="1" stop-color="#FF6978"/>
</radialGradient>
</defs>
</svg>
